<svg width="20" height="20" viewBox="0 0 20 20" fill="none" xmlns="http://www.w3.org/2000/svg">
<path fill-rule="evenodd" clip-rule="evenodd" d="M12.1205 9.23389H14.8884C15.308 9.23389 15.6378 8.88692 15.6378 8.46851C15.6378 8.03989 15.308 7.70312 14.8884 7.70312H12.1205C11.7008 7.70312 11.3711 8.03989 11.3711 8.46851C11.3711 8.88692 11.7008 9.23389 12.1205 9.23389ZM18.1766 3.92749C18.7861 3.92749 19.1858 4.1418 19.5855 4.61123C19.9852 5.08067 20.0551 5.7542 19.9652 6.36549L19.0159 13.06C18.8361 14.3469 17.7569 15.2949 16.4879 15.2949H5.58639C4.25742 15.2949 3.15828 14.255 3.04837 12.908L2.12908 1.7834L0.620259 1.51807C0.22057 1.44664 -0.0592117 1.04864 0.0107338 0.640433C0.0806793 0.223045 0.470376 -0.0535127 0.880056 0.0087383L3.2632 0.375101C3.60293 0.437352 3.85274 0.722074 3.88272 1.06905L4.07257 3.35499C4.10254 3.68257 4.36234 3.92749 4.68209 3.92749H18.1766ZM5.42507 16.9082C4.58572 16.9082 3.90625 17.6021 3.90625 18.4594C3.90625 19.3064 4.58572 20.0003 5.42507 20.0003C6.25442 20.0003 6.93389 19.3064 6.93389 18.4594C6.93389 17.6021 6.25442 16.9082 5.42507 16.9082ZM16.6673 16.9082C15.8279 16.9082 15.1484 17.6021 15.1484 18.4594C15.1484 19.3064 15.8279 20.0003 16.6673 20.0003C17.4966 20.0003 18.1761 19.3064 18.1761 18.4594C18.1761 17.6021 17.4966 16.9082 16.6673 16.9082Z" fill="#2B675E"/>
</svg>
