<svg width="24" height="24" viewBox="0 0 24 24" fill="none" xmlns="http://www.w3.org/2000/svg">
<path fill-rule="evenodd" clip-rule="evenodd" d="M4.54 2H7.92C9.33 2 10.46 3.15 10.46 4.561V7.97C10.46 9.39 9.33 10.53 7.92 10.53H4.54C3.14 10.53 2 9.39 2 7.97V4.561C2 3.15 3.14 2 4.54 2ZM4.54 13.4688H7.92C9.33 13.4688 10.46 14.6097 10.46 16.0297V19.4387C10.46 20.8487 9.33 21.9987 7.92 21.9987H4.54C3.14 21.9987 2 20.8487 2 19.4387V16.0297C2 14.6097 3.14 13.4688 4.54 13.4688ZM19.4591 2H16.0791C14.6691 2 13.5391 3.15 13.5391 4.561V7.97C13.5391 9.39 14.6691 10.53 16.0791 10.53H19.4591C20.8591 10.53 21.9991 9.39 21.9991 7.97V4.561C21.9991 3.15 20.8591 2 19.4591 2ZM16.0791 13.4688H19.4591C20.8591 13.4688 21.9991 14.6097 21.9991 16.0297V19.4387C21.9991 20.8487 20.8591 21.9987 19.4591 21.9987H16.0791C14.6691 21.9987 13.5391 20.8487 13.5391 19.4387V16.0297C13.5391 14.6097 14.6691 13.4688 16.0791 13.4688Z" fill="#BFC0C5"/>
</svg>
