<svg width="39" height="39" viewBox="0 0 39 39" fill="none" xmlns="http://www.w3.org/2000/svg">
<rect x="0.835938" width="38.1639" height="38.1639" rx="12" fill="#013D29"/>
<g clip-path="url(#clip0_127_1997)">
<path d="M29.5397 13.7137C29.5406 13.2876 29.404 12.9564 29.1041 12.6584C27.6779 11.2445 26.2573 9.82392 24.8434 8.39671C24.5463 8.09779 24.2218 7.9488 23.7938 7.9507C21.5799 7.96209 19.366 7.9526 17.1521 7.95734C15.5181 7.96114 14.3527 9.13594 14.3508 10.7719C14.349 12.8596 14.3508 14.9473 14.3508 17.035C14.3508 19.1701 14.3471 21.3052 14.3527 23.4404C14.3565 24.9198 15.5304 26.16 17.0098 26.1705C20.2988 26.1942 23.5888 26.1942 26.8788 26.1705C28.3583 26.16 29.533 24.9217 29.5349 23.4404C29.5406 20.1978 29.5321 16.9562 29.5416 13.7137H29.5397ZM24.5122 11.0414C25.1679 11.6981 25.797 12.3291 26.4328 12.9668H24.5122V11.0414ZM26.579 24.135C23.4797 24.1359 20.3805 24.1359 17.2821 24.135C16.6055 24.135 16.3693 23.9006 16.3693 23.2268C16.3674 19.116 16.3674 15.0052 16.3693 10.8943C16.3693 10.2206 16.6131 9.9767 17.2783 9.9767C18.8441 9.97481 20.4089 9.97575 21.9747 9.9767C22.1132 9.9767 22.2527 9.98904 22.4387 9.99853C22.4387 10.8886 22.4387 11.7541 22.4387 12.6186C22.4387 13.0143 22.4359 13.409 22.4387 13.8048C22.4463 14.6588 22.8041 15.0251 23.6467 15.0289C24.738 15.0336 25.8284 15.0298 26.9196 15.0298C27.0914 15.0298 27.2632 15.0298 27.4852 15.0298C27.4966 15.2158 27.5137 15.3667 27.5137 15.5176C27.5156 18.0788 27.5156 20.64 27.5137 23.2022C27.5137 23.911 27.2869 24.1359 26.578 24.1359L26.579 24.135Z" fill="white"/>
<path d="M22.9488 28.1991C22.8084 28.184 22.6641 28.1915 22.5227 28.1915C19.4719 28.1915 16.42 28.1915 13.3692 28.1915C12.5161 28.1915 12.3329 28.0122 12.3329 27.1752C12.3329 23.1118 12.3329 19.0494 12.3301 14.986C12.3301 14.7668 12.3206 14.54 12.2646 14.3303C12.1507 13.9004 11.7474 13.6157 11.3109 13.6157C10.8754 13.6157 10.473 13.9014 10.3563 14.3303C10.3031 14.5248 10.2927 14.7355 10.2917 14.9386C10.287 17.0101 10.288 19.0807 10.288 21.1523C10.288 23.2077 10.2861 25.2631 10.288 27.3176C10.2899 29.0484 11.4409 30.2081 13.1623 30.21C16.2929 30.2128 19.4225 30.2109 22.5531 30.21C22.6793 30.21 22.8065 30.2128 22.9317 30.2005C23.466 30.1502 23.8361 29.7583 23.8494 29.2344C23.8626 28.6954 23.4859 28.258 22.9469 28.1991H22.9488Z" fill="white"/>
</g>
<defs>
<clipPath id="clip0_127_1997">
<rect width="19.2484" height="22.2623" fill="white" transform="translate(10.293 7.95068)"/>
</clipPath>
</defs>
</svg>
