<svg width="230" height="75" viewBox="0 0 230 75" fill="none" xmlns="http://www.w3.org/2000/svg">
<path d="M85.1052 62.2776C89.5611 62.2776 93.4185 60.3928 95.6797 57.229V61.6044H101.732V13.542H95.6797V34.0729C93.352 30.9091 89.5611 28.957 85.0387 28.957C76.3928 28.957 69.7422 36.2269 69.7422 45.6509C69.7422 55.0076 76.3928 62.2776 85.1052 62.2776ZM86.1028 56.5559C80.1172 56.5559 75.9273 52.0458 75.9273 45.5836C75.9273 39.1888 80.1172 34.6787 86.0363 34.6787C92.0219 34.6787 96.0788 39.1888 96.0788 45.6509C96.0788 52.0458 92.0219 56.5559 86.1028 56.5559Z" fill="#2F6050"/>
<path d="M123.082 62.2776C128.07 62.2776 132.593 60.3255 135.652 56.7578L131.795 52.7862C129.733 55.3442 126.607 56.5559 123.082 56.5559C117.429 56.5559 113.439 53.1901 112.508 47.8723H137.248C137.514 46.5933 137.581 45.5836 137.581 44.6412C137.581 35.5538 131.329 28.957 122.683 28.957C113.506 28.957 106.389 36.2269 106.389 45.5836C106.389 55.1423 113.572 62.2776 123.082 62.2776ZM122.55 34.5441C127.738 34.5441 131.063 37.6405 131.728 42.8237H112.508C113.439 37.7752 117.23 34.5441 122.55 34.5441Z" fill="#2F6050"/>
<path d="M156.744 62.2776C161.732 62.2776 166.254 60.3255 169.313 56.7578L165.456 52.7862C163.394 55.3442 160.268 56.5559 156.744 56.5559C151.091 56.5559 147.1 53.1901 146.169 47.8723H170.909C171.176 46.5933 171.242 45.5836 171.242 44.6412C171.242 35.5538 164.99 28.957 156.345 28.957C147.167 28.957 140.05 36.2269 140.05 45.5836C140.05 55.1423 147.233 62.2776 156.744 62.2776ZM156.212 34.5441C161.399 34.5441 164.724 37.6405 165.389 42.8237H146.169C147.1 37.7752 150.891 34.5441 156.212 34.5441Z" fill="#2F6050"/>
<path d="M175.773 61.6044H181.759V13.542H175.773V61.6044Z" fill="#2F6050"/>
<path d="M188.521 61.6044H194.507V13.542H188.521V61.6044Z" fill="#2F6050"/>
<path d="M202.599 75H209.25L215.236 61.8737L230 29.6301H223.349L213.706 52.315L204.595 29.6301H197.944L210.381 58.8445L202.599 75Z" fill="#2F6050"/>
<g clip-path="url(#clip0_149_386)">
<path d="M47.5384 14.0127C43.1103 9.93887 36.9469 7.4548 29.9527 7.4548H20.7168V41.3933H31.1694C35.4492 41.3933 38.5927 38.6733 40.0286 35.2235C41.1402 32.5656 41.2885 29.4419 40.0811 26.7901C37.691 21.5519 31.6881 20.9712 26.661 20.9712V13.5252C34.9675 13.5252 43.0023 15.41 46.7942 23.7006C48.8508 28.206 48.755 33.5312 46.8652 38.074C44.3517 44.0947 38.7934 48.8486 31.1694 48.8486H13.3058V-0.000488281H29.9527C38.8459 -0.000488281 46.751 3.23811 52.5099 8.54469C65.2815 20.3036 65.3062 39.9494 53.0781 52.0686C46.7572 58.3346 38.1264 61.5577 29.3043 61.5577H0V13.5283H7.4326C7.4326 27.0478 7.41407 40.5674 7.41407 54.1148H29.3043C36.2552 54.1148 42.8973 51.7301 47.8966 46.7744C57.1047 37.6455 57.1572 22.887 47.5384 14.0127Z" fill="#219653"/>
</g>
<defs>
<clipPath id="clip0_149_386">
<rect width="62.172" height="61.5613" fill="white"/>
</clipPath>
</defs>
</svg>
