<svg width="39" height="39" viewBox="0 0 39 39" fill="none" xmlns="http://www.w3.org/2000/svg">
<rect x="0.820312" width="38.1639" height="38.1639" rx="12" fill="#1877F2"/>
<path d="M29.4433 19.082C29.4433 13.8345 25.1499 9.54102 19.9023 9.54102C14.6548 9.54102 10.3613 13.8345 10.3613 19.082C10.3613 23.8525 13.8199 27.7881 18.3519 28.5037V21.825H15.9667V19.082H18.3519V16.9353C18.3519 14.55 19.783 13.2381 21.9298 13.2381C23.0031 13.2381 24.0765 13.4767 24.0765 13.4767V15.8619H22.8839C21.6912 15.8619 21.3335 16.5775 21.3335 17.2931V19.082H23.9572L23.4802 21.825H21.2142V28.623C25.9847 27.9074 29.4433 23.8525 29.4433 19.082Z" fill="white"/>
</svg>
