<svg width="14" height="15" viewBox="0 0 14 15" fill="none" xmlns="http://www.w3.org/2000/svg">
<path d="M10.4628 8.42377C12.289 8.42377 13.7736 9.88921 13.7736 11.6919C13.7736 13.4935 12.289 14.96 10.4628 14.96C8.63656 14.96 7.15198 13.4935 7.15198 11.6919C7.15198 9.88921 8.63656 8.42377 10.4628 8.42377ZM10.4628 9.95666C9.49274 9.95666 8.70489 10.7343 8.70489 11.6919C8.70489 12.6484 9.49274 13.4271 10.4628 13.4271C11.4328 13.4271 12.2207 12.6484 12.2207 11.6919C12.2207 10.7343 11.4328 9.95666 10.4628 9.95666ZM7.14309 10.9251C7.5717 10.9251 7.91955 11.2685 7.91955 11.6916C7.91955 12.1147 7.5717 12.458 7.14309 12.458H0.777182C0.348577 12.458 0.000724693 12.1147 0.000724693 11.6916C0.000724693 11.2685 0.348577 10.9251 0.777182 10.9251H7.14309ZM3.31081 0C5.13704 0 6.62162 1.46646 6.62162 3.26811C6.62162 5.06976 5.13704 6.53622 3.31081 6.53622C1.48562 6.53622 0 5.06976 0 3.26811C0 1.46646 1.48562 0 3.31081 0ZM3.31081 1.53289C2.34179 1.53289 1.55291 2.31159 1.55291 3.26811C1.55291 4.22463 2.34179 5.00334 3.31081 5.00334C4.28087 5.00334 5.06871 4.22463 5.06871 3.26811C5.06871 2.31159 4.28087 1.53289 3.31081 1.53289ZM12.9975 2.50187C13.4261 2.50187 13.7739 2.84524 13.7739 3.26832C13.7739 3.69139 13.4261 4.03476 12.9975 4.03476H6.63051C6.20191 4.03476 5.85405 3.69139 5.85405 3.26832C5.85405 2.84524 6.20191 2.50187 6.63051 2.50187H12.9975Z" fill="white"/>
</svg>
