<svg width="24" height="24" viewBox="0 0 24 24" fill="none" xmlns="http://www.w3.org/2000/svg">
<path fill-rule="evenodd" clip-rule="evenodd" d="M3.5 10.3178C3.5 5.71789 7.34388 2 11.9934 2C16.6561 2 20.5 5.71789 20.5 10.3178C20.5 12.6357 19.657 14.7876 18.2695 16.6116C16.7388 18.6235 14.8522 20.3765 12.7285 21.7524C12.2425 22.0704 11.8039 22.0944 11.2704 21.7524C9.13474 20.3765 7.24809 18.6235 5.7305 16.6116C4.34198 14.7876 3.5 12.6357 3.5 10.3178ZM9.19531 10.5773C9.19531 12.1182 10.4527 13.3302 11.9945 13.3302C13.5373 13.3302 14.8069 12.1182 14.8069 10.5773C14.8069 9.04831 13.5373 7.77734 11.9945 7.77734C10.4527 7.77734 9.19531 9.04831 9.19531 10.5773Z" fill="#BFC0C5"/>
</svg>
