<svg width="17" height="21" viewBox="0 0 17 21" fill="none" xmlns="http://www.w3.org/2000/svg">
<path d="M6.22018 21C4.57507 20.8196 3.02141 20.4645 1.67947 19.4833C0.385506 18.5378 -0.074042 17.2219 0.00951221 15.6645C0.0710487 14.5182 0.541323 13.5404 1.21371 12.6418C1.44631 12.3308 1.67382 12.0136 1.93126 11.724C2.60477 10.9651 2.72389 10.0801 2.55114 9.12498C2.50259 8.85749 2.42355 8.5951 2.35016 8.29821C3.52387 8.98812 4.62814 9.69614 4.92792 11.154C4.94768 11.1433 4.96687 11.1325 4.98663 11.1212C4.98663 10.6253 4.95614 10.1276 4.99228 9.6345C5.08994 8.31291 5.46029 7.0869 6.29809 6.02658C6.67013 5.55608 7.00096 5.05391 7.35381 4.56814C8.08096 3.5655 8.25541 2.47238 7.88732 1.29218C7.75408 0.864656 7.6073 0.440528 7.48874 0C10.2251 1.81583 12.0808 4.20396 12.3784 7.62356C13.2794 6.77248 13.5402 5.71272 13.3996 4.52008C13.4375 4.52573 13.4561 4.52347 13.4606 4.53025C14.815 6.71027 15.9452 8.99378 16.6187 11.4831C16.8948 12.5033 17.0506 13.5404 16.9851 14.6053C16.827 17.171 15.5958 19.0264 13.3206 20.197C12.6522 20.5408 11.9465 20.7806 11.2125 20.9389C11.1606 20.9502 11.107 20.9514 11.0573 20.9565C12.6578 19.8034 12.8819 18.1855 12.5483 16.4211C12.3067 15.1425 11.6924 14.0064 10.9743 12.9303C10.9675 12.9201 10.954 12.915 10.9444 12.9082C10.9162 13.1762 10.9263 13.4573 10.8478 13.7101C10.7716 13.9561 10.604 14.1738 10.438 14.3983C10.2793 12.7074 9.29362 11.5945 7.96748 10.6377C7.97426 10.7497 7.97708 10.8079 7.9816 10.8656C8.11031 12.432 7.71738 13.7977 6.50811 14.8801C6.06775 15.2743 5.66071 15.7137 5.28359 16.1695C4.36957 17.275 4.28263 18.5706 5.00187 19.813C5.28754 20.3056 5.45916 20.4741 6.22131 20.9994L6.22018 21Z" fill="black"/>
<path d="M6.22018 21C4.57507 20.8196 3.02141 20.4645 1.67947 19.4833C0.385506 18.5378 -0.074042 17.2219 0.00951221 15.6645C0.0710487 14.5182 0.541323 13.5404 1.21371 12.6418C1.44631 12.3308 1.67382 12.0136 1.93126 11.724C2.60477 10.9651 2.72389 10.0801 2.55114 9.12498C2.50259 8.85749 2.42355 8.5951 2.35016 8.29821C3.52387 8.98812 4.62814 9.69614 4.92792 11.154C4.94768 11.1433 4.96687 11.1325 4.98663 11.1212C4.98663 10.6253 4.95614 10.1276 4.99228 9.6345C5.08994 8.31291 5.46029 7.0869 6.29809 6.02658C6.67013 5.55608 7.00096 5.05391 7.35381 4.56814C8.08096 3.5655 8.25541 2.47238 7.88732 1.29218C7.75408 0.864656 7.6073 0.440528 7.48874 0C10.2251 1.81583 12.0808 4.20396 12.3784 7.62356C13.2794 6.77248 13.5402 5.71272 13.3996 4.52008C13.4375 4.52573 13.4561 4.52347 13.4606 4.53025C14.815 6.71027 15.9452 8.99378 16.6187 11.4831C16.8948 12.5033 17.0506 13.5404 16.9851 14.6053C16.827 17.171 15.5958 19.0264 13.3206 20.197C12.6522 20.5408 11.9465 20.7806 11.2125 20.9389C11.1606 20.9502 11.107 20.9514 11.0573 20.9565C12.6578 19.8034 12.8819 18.1855 12.5483 16.4211C12.3067 15.1425 11.6924 14.0064 10.9743 12.9303C10.9675 12.9201 10.954 12.915 10.9444 12.9082C10.9162 13.1762 10.9263 13.4573 10.8478 13.7101C10.7716 13.9561 10.604 14.1738 10.438 14.3983C10.2793 12.7074 9.29362 11.5945 7.96748 10.6377C7.97426 10.7497 7.97708 10.8079 7.9816 10.8656C8.11031 12.432 7.71738 13.7977 6.50811 14.8801C6.06775 15.2743 5.66071 15.7137 5.28359 16.1695C4.36957 17.275 4.28263 18.5706 5.00187 19.813C5.28754 20.3056 5.45916 20.4741 6.22131 20.9994L6.22018 21Z" fill="url(#paint0_linear_127_2171)"/>
<defs>
<linearGradient id="paint0_linear_127_2171" x1="9" y1="-1.55396e-06" x2="16.3636" y2="17.9852" gradientUnits="userSpaceOnUse">
<stop stop-color="#5ACD84"/>
<stop offset="1" stop-color="#56AEFF"/>
</linearGradient>
</defs>
</svg>
