<svg width="40" height="39" viewBox="0 0 40 39" fill="none" xmlns="http://www.w3.org/2000/svg">
<rect x="0.884766" width="38.1639" height="38.1639" rx="12" fill="#1DA1F2"/>
<path d="M29.5077 13.119C28.7922 13.4768 28.0766 13.5961 27.2418 13.7153C28.0766 13.2383 28.6729 12.5227 28.9114 11.5686C28.1959 12.0457 27.361 12.2842 26.4069 12.5227C25.6914 11.8071 24.618 11.3301 23.5446 11.3301C21.0401 11.3301 19.1319 13.7153 19.7282 16.1006C16.5082 15.9813 13.6459 14.4309 11.6184 12.0457C10.545 13.8346 11.1414 16.1006 12.811 17.2932C12.2147 17.2932 11.6184 17.0547 11.0221 16.8161C11.0221 18.6051 12.334 20.2747 14.1229 20.7518C13.5266 20.8711 12.9303 20.9903 12.334 20.8711C12.811 22.4215 14.2422 23.6141 16.0311 23.6141C14.6 24.6875 12.4532 25.2838 10.4258 25.0452C12.2147 26.1186 14.2422 26.8342 16.3889 26.8342C23.6639 26.8342 27.7188 20.7518 27.4803 15.1465C28.3151 14.6694 29.0307 13.9538 29.5077 13.119Z" fill="white"/>
</svg>
