<svg width="40" height="39" viewBox="0 0 40 39" fill="none" xmlns="http://www.w3.org/2000/svg">
<rect x="0.951172" width="38.1639" height="38.1639" rx="12" fill="#25D366"/>
<path fill-rule="evenodd" clip-rule="evenodd" d="M26.7119 12.284C24.9229 10.4951 22.5377 9.54102 20.0332 9.54102C14.7856 9.54102 10.4922 13.8345 10.4922 19.082C10.4922 20.7517 10.9692 22.4213 11.8041 23.8525L10.4922 28.623L15.5012 27.3111C16.9324 28.0267 18.4828 28.5037 20.0332 28.5037C25.2807 28.5037 29.5742 24.2103 29.5742 18.9627C29.5742 16.4582 28.5008 14.073 26.7119 12.284ZM20.0332 26.9533C18.602 26.9533 17.1709 26.5955 15.9783 25.8799L15.7397 25.7607L12.7582 26.5955L13.593 23.7332L13.3545 23.3754C12.5196 22.0636 12.1619 20.6324 12.1619 19.2013C12.1619 14.9078 15.7397 11.3299 20.0332 11.3299C22.1799 11.3299 24.0881 12.1648 25.6385 13.5959C27.1889 15.1463 27.9045 17.0545 27.9045 19.2013C27.9045 23.3754 24.4459 26.9533 20.0332 26.9533ZM24.3266 20.9902C24.0881 20.8709 22.8955 20.2746 22.657 20.2746C22.4184 20.1554 22.2991 20.1554 22.1799 20.3939C22.0606 20.6324 21.5836 21.1095 21.4643 21.348C21.3451 21.4672 21.2258 21.4672 20.9873 21.4672C20.7487 21.348 20.0332 21.1095 19.0791 20.2746C18.3635 19.6783 17.8865 18.8435 17.7672 18.6049C17.6479 18.3664 17.7672 18.2472 17.8865 18.1279C18.0057 18.0086 18.125 17.8894 18.2442 17.7701C18.3635 17.6509 18.3635 17.5316 18.4828 17.4123C18.602 17.2931 18.4828 17.1738 18.4828 17.0545C18.4828 16.9353 18.0057 15.7427 17.7672 15.2656C17.6479 14.9078 17.4094 14.9078 17.2902 14.9078C17.1709 14.9078 17.0516 14.9078 16.8131 14.9078C16.6938 14.9078 16.4553 14.9078 16.2168 15.1463C15.9782 15.3849 15.3819 15.9812 15.3819 17.1738C15.3819 18.3664 16.2168 19.4398 16.336 19.6783C16.4553 19.7976 18.0057 22.3021 20.3909 23.2562C22.4184 24.091 22.7762 23.8525 23.2533 23.8525C23.7303 23.8525 24.6844 23.2562 24.8037 22.7791C25.0422 22.1828 25.0422 21.7058 24.9229 21.7058C24.8037 21.1095 24.5651 21.1095 24.3266 20.9902Z" fill="white"/>
</svg>
